[Header]
FileType HTR
DataType HTRS
FileVersion 1
NumSegments 28
NumFrames 4
DataFrameRate 24
EulerRotationOrder ZYX
CalibrationUnits mm
RotationUnits Degrees
GlobalAxisofGravity Y
BoneLengthAxis Y
ScaleFactor 1.0
[SegmentNames&Hierarchy]
waist	GLOBAL
chest	waist
head	chest
joint2	chest
right_shoulder1	joint2
right_elbow1	right_shoulder1
right_wrist1	right_elbow1
right_hand1	right_wrist1
right_finger3	right_hand1
right_finger4	right_hand1
right_finger5	right_hand1
joint3	chest
right_shoulder2	joint3
right_elbow2	right_shoulder2
right_wrist2	right_elbow2
right_hand2	right_wrist2
right_finger6	right_hand2
right_finger7	right_hand2
right_finger8	right_hand2
Center_pelvis	waist
left_pelvs	Center_pelvis
left_leg	left_pelvs
left_knee	left_leg
left_foot	left_knee
right_pelvis	Center_pelvis
right_leg	right_pelvis
right_knee	right_leg
right_foot	right_knee
[BasePosition]
waist	0	0	0	179.9999991	0	91.33221985	1
chest	0	0	0	-2.307808268e-010	-1.984983424e-008	1.332219854	1
head	0	0	0	180	-1.481061187e-024	90	1
joint2	0	0	0	4.615476202e-010	-1.707085745e-006	90	1
right_shoulder1	0	0	0	1.916575325e-008	-1.983803253e-008	-88.02506599	1
right_elbow1	0	0	0	-180	-1.948815659e-008	-12.92899665	1
right_wrist1	0	0	0	3.256551172e-010	1.942478841e-008	1.920938916	1
right_hand1	0	0	0	136.2194085	85.17676588	-133.4832578	1
right_finger3	0	0	0	154.4596717	79.84057755	147.6247455	1
right_finger4	0	0	0	154.4596717	79.84057755	147.6247455	1
right_finger5	0	0	0	154.4596717	79.84057755	147.6247455	1
joint3	0	0	0	-180	-1.89575832e-022	90	1
right_shoulder2	0	0	0	6.774897105e-015	-7.012540931e-015	-88.02506599	1
right_elbow2	0	0	0	-180	-6.888863384e-015	-12.92899665	1
right_wrist2	0	0	0	-1.240805042e-012	-7.401196581e-011	1.920938916	1
right_hand2	0	0	0	136.2194085	85.17676588	-133.4832578	1
right_finger6	0	0	0	154.4596717	79.84057755	147.6247455	1
right_finger7	0	0	0	154.4596717	79.84057755	147.6247455	1
right_finger8	0	0	0	154.4596717	79.84057755	147.6247455	1
Center_pelvis	0	0	0	-180	-8.537716493e-007	89.87586122	1
left_pelvs	0	0	0	0	0	-1.456358634	1
left_leg	0	0	0	179.9999991	0	88.69804733	1
left_knee	0	0	0	-180	-7.863991589e-009	-2.076172838	1
left_foot	0	0	0	179.9999985	-3.055580289e-010	-90.77422016	1
right_pelvis	0	0	0	0	0	-2.39554958	1
right_leg	0	0	0	0	0	-87.75885638	1
right_knee	0	0	0	179.9999991	3.702652968e-022	-2.076172838	1
right_foot	0	0	0	180	-7.405305937e-025	-90.77422016	1
[waist]
7	0	-3.152148962	0	-23.37685776	1.236049206e-017	-1.987846699e-016	1.0
8	0	-3.152148962	0	-23.37685776	1.236049206e-017	-1.987846699e-016	1.0
9	0	-3.152148962	0	-23.37685776	1.236049206e-017	-1.987846699e-016	1.0
10	0	-3.152148962	0	-23.37685776	1.236049206e-017	-1.987846699e-016	1.0
[chest]
7	24.82733917	-0.2741569579	1.050004363	30.8533783	11.05470943	8.302028656	1.0
8	24.53770447	-0.2807578743	1.048663735	30.87399101	11.05293465	8.305140495	1.0
9	24.27114868	-0.2868328094	1.0474298	31.35095406	11.01187801	8.377146721	1.0
10	24.27479935	-0.2867496014	1.047446728	31.40018272	10.72843742	8.874252319	1.0
[head]
7	20.62318993	0.1433748305	1.492195129	-13.06167316	-5.514229298	1.277144432	1.0
8	20.62318993	0.1433748305	1.492195129	-13.05934811	-5.413923264	1.25374949	1.0
9	20.62318993	0.1433748305	1.492195129	-13.05814743	-5.362151146	1.241674304	1.0
10	20.62318993	0.1433748305	1.492195129	-13.05827236	-5.367578983	1.242940307	1.0
[joint2]
7	-1.657010078	17.01290512	0.01287616603	-10.35709095	-15.0103178	2.70999527	1.0
8	-1.657010078	17.01290512	0.01287616603	-10.35709095	-15.0103178	2.70999527	1.0
9	-1.657010078	17.01290512	0.01287616603	-10.35709095	-15.0103178	2.70999527	1.0
10	-1.657010078	17.01290512	0.01287616603	-10.35709095	-15.0103178	2.70999527	1.0
[right_shoulder1]
7	14.87302208	1.389718771	0.9017342329	0	-11.79370117	0	1.0
8	14.86148739	1.596510291	0.8893460035	0	-11.79370117	0	1.0
9	14.84941864	1.812847257	0.8763858676	0	-11.79370117	0	1.0
10	14.83703423	2.034850836	0.8630863428	0	-11.79370117	0	1.0
[right_elbow1]
7	-13.64346027	1.083028078	-0.5017899871	-22.14589691	26.84140015	-38.93839264	1.0
8	-13.64346027	1.083028078	-0.5017899871	-21.99875069	26.08248901	-38.59984207	1.0
9	-13.64346027	1.083028078	-0.5017899871	-21.84481049	25.28854752	-38.2456665	1.0
10	-13.64346027	1.083028078	-0.5017899871	-21.68684006	24.47380829	-37.88222122	1.0
[right_wrist1]
7	-11.31368637	-0.05072283	0.4353415966	0	39.7567749	0	1.0
8	-11.38231468	-0.06658516824	0.3841889203	0	40.53695679	0	1.0
9	-11.45316887	-0.0829615593	0.3313785493	0	41.3424263	0	1.0
10	-11.5240202	-0.0993379876	0.278568089	0	42.147892	0	1.0
[right_hand1]
7	-7.870647907	-0.6475095749	0.1588415354	21.79759216	21.91635323	42.70477295	1.0
8	-7.870647907	-0.6475095749	0.1588415354	22.28740883	21.37183571	44.07806396	1.0
9	-7.870647907	-0.6475095749	0.1588415354	22.79310036	20.80967712	45.49586105	1.0
10	-7.870647907	-0.6475095749	0.1588415354	23.29879189	20.24751282	46.91365814	1.0
[right_finger3]
7	10.07661057	3.347557783	-1.489186764	-78.3791275	61.25396347	96.68160248	1.0
8	10.07661057	3.347557783	-1.489186764	-78.3791275	61.25396347	96.68160248	1.0
9	10.07661057	3.347557783	-1.489186764	-78.3791275	61.25396347	96.68160248	1.0
10	10.07661057	3.347557783	-1.489186764	-78.3791275	61.25396347	96.68160248	1.0
[right_finger4]
7	-1.201135993	3.376283169	11.27149582	-198.9912262	-2.457621098	60.21281433	1.0
8	-1.201135993	3.376283169	11.27149582	-198.9912262	-2.457621098	60.21281433	1.0
9	-1.201135993	3.376283169	11.27149582	-198.9912262	-2.457621098	60.21281433	1.0
10	-1.201135993	3.376283169	11.27149582	-198.9912262	-2.457621098	60.21281433	1.0
[right_finger5]
7	-6.853637218	4.493112087	-5.936321735	32.59261322	-12.32942677	103.8147736	1.0
8	-6.853637218	4.493112087	-5.936321735	32.59261322	-12.32942677	103.8147736	1.0
9	-6.853637218	4.493112087	-5.936321735	32.59261322	-12.32942677	103.8147736	1.0
10	-6.853637218	4.493112087	-5.936321735	32.59261322	-12.32942677	103.8147736	1.0
[joint3]
7	-1.657010078	-17.01289368	0.01287565939	-10.33717155	14.59749508	-2.632034063	1.0
8	-1.657010078	-17.01289368	0.01287565939	-10.33717155	14.59749508	-2.632034063	1.0
9	-1.657010078	-17.01289368	0.01287565939	-10.33717155	14.59749508	-2.632034063	1.0
10	-1.657010078	-17.01289368	0.01287565939	-10.33717155	14.59749508	-2.632034063	1.0
[right_shoulder2]
7	-14.95888519	-1.397753	-0.9009367824	0	-34.23234558	0	1.0
8	-14.97044945	-1.606705904	-0.8883340359	0	-34.23234558	0	1.0
9	-14.98254776	-1.825304031	-0.8751494884	0	-34.23234558	0	1.0
10	-14.99496269	-2.049628258	-0.8616196513	0	-34.23234558	0	1.0
[right_elbow2]
7	13.02228546	-0.6429510117	0	11.08346176	39.99211121	13.7316103	1.0
8	13.02228546	-0.6429510117	0	11.19007778	40.60985947	13.89408398	1.0
9	13.02228546	-0.6429510117	0	11.30161667	41.25611496	14.06405735	1.0
10	13.02228546	-0.6429510117	0	11.41607666	41.91930389	14.23848248	1.0
[right_wrist2]
7	11.93326855	-0.2942378223	0.5743926167	0	41.0600853	0	1.0
8	11.95664501	-0.3070060909	0.6739091873	0	40.37770462	0	1.0
9	11.98077965	-0.3201881349	0.7766509056	0	39.67321014	0	1.0
10	12.00491333	-0.3333702385	0.8793926835	0	38.96871185	0	1.0
[right_hand2]
7	8.313048363	0.02588133886	-0.2132965624	0	0	-12.22186852	1.0
8	8.313048363	0.02588133886	-0.2132965624	0	0	-10.11011887	1.0
9	8.313048363	0.02588133886	-0.2132965624	0	0	-7.929931641	1.0
10	8.313048363	0.02588133886	-0.2132965624	0	0	-5.749741554	1.0
[right_finger6]
7	-10.07661057	-3.347557783	1.489186764	-82.56325531	41.54194641	91.40802002	1.0
8	-10.07661057	-3.347557783	1.489186764	-82.56325531	41.54194641	91.40802002	1.0
9	-10.07661057	-3.347557783	1.489186764	-82.56325531	41.54194641	91.40802002	1.0
10	-10.07661057	-3.347557783	1.489186764	-82.56325531	41.54194641	91.40802002	1.0
[right_finger7]
7	1.201135993	-3.376283169	-11.27149582	-178.3618011	19.07616615	162.3161011	1.0
8	1.201135993	-3.376283169	-11.27149582	-178.3618011	19.07616615	162.3161011	1.0
9	1.201135993	-3.376283169	-11.27149582	-178.3618011	19.07616615	162.3161011	1.0
10	1.201135993	-3.376283169	-11.27149582	-178.3618011	19.07616615	162.3161011	1.0
[right_finger8]
7	6.853637218	-4.493112087	5.936321735	28.57172203	20.40917206	52.71258163	1.0
8	6.853637218	-4.493112087	5.936321735	28.57172203	20.40917206	52.71258163	1.0
9	6.853637218	-4.493112087	5.936321735	28.57172203	20.40917206	52.71258163	1.0
10	6.853637218	-4.493112087	5.936321735	28.57172203	20.40917206	52.71258163	1.0
[Center_pelvis]
7	-4.794977188	-0.3578663468	2.050791502	0	25.67634773	0	1.0
8	-4.631175041	-0.3541332483	2.051549911	0	25.67634773	0	1.0
9	-4.501498222	-0.3511778712	2.052150011	0	25.67634773	0	1.0
10	-4.417469501	-0.3492628038	2.052538872	0	25.67634773	0	1.0
[left_pelvs]
7	11.57778835	-1.013551831	-2.124441862	0	6.368044376	0	1.0
8	11.57291317	-1.212543249	-2.125763416	0	6.368044376	0	1.0
9	11.5690527	-1.370078921	-2.126809835	0	6.368044376	0	1.0
10	11.56655216	-1.472159624	-2.127487898	0	6.368044376	0	1.0
[left_leg]
7	8.450808053e-008	-5.682914734	0.3641465604	0	1.013960719	0	1.0
8	8.450808053e-008	-5.682914734	0.3641465604	0	-0.8419088721	0	1.0
9	8.450808053e-008	-5.682914734	0.3641465604	0	-2.311146259	0	1.0
10	8.450808053e-008	-5.682914734	0.3641465604	0	-3.263190746	0	1.0
[left_knee]
7	-10.69747543	0.03457061574	-6.811455844e-009	0	-12.45467854	0	1.0
8	-10.69747543	0.03457061574	-6.811455844e-009	0	-14.93656254	0	1.0
9	-10.69747543	0.03457061574	-6.811455844e-009	0	-16.9013958	0	1.0
10	-10.69747543	0.03457061574	-6.811455844e-009	0	-18.17457771	0	1.0
[left_foot]
7	-14.54718971	-0.01193539705	1.933258442e-009	-23.95181274	-1.798151851	-4.04049778	1.0
8	-14.54718971	-0.01193539705	1.933258442e-009	-23.95181274	-1.798151851	-4.04049778	1.0
9	-14.54718971	-0.01193539705	1.933258442e-009	-23.95181274	-1.798151851	-4.04049778	1.0
10	-14.54718971	-0.01193539705	1.933258442e-009	-23.95181274	-1.798151851	-4.04049778	1.0
[right_pelvis]
7	-11.45388126	-0.5535235405	3.533033133	0	-9.894831657	0	1.0
8	-11.4587574	-0.7525148988	3.531711102	0	-9.894831657	0	1.0
9	-11.46261692	-0.9100505114	3.530664921	0	-9.894831657	0	1.0
10	-11.46511841	-1.012131333	3.529987097	0	-9.894831657	0	1.0
[right_leg]
7	0.09169664979	-5.593489647	0.06310817599	0	-19.73950768	0	1.0
8	0.09169664979	-5.593489647	0.06310817599	0	-20.84985352	0	1.0
9	0.09169664979	-5.593489647	0.06310817599	0	-21.72888184	0	1.0
10	0.09169664979	-5.593489647	0.06310817599	0	-22.29847908	0	1.0
[right_knee]
7	10.69750977	-0.03459574655	-4.718447855e-015	0	-22.38558578	0	1.0
8	10.69750977	-0.03459574655	-4.718447855e-015	0	-23.77282333	0	1.0
9	10.69750977	-0.03459574655	-4.718447855e-015	0	-24.87105751	0	1.0
10	10.69750977	-0.03459574655	-4.718447855e-015	0	-25.58269882	0	1.0
[right_foot]
7	14.54718685	0.01191107463	1.774880243e-010	0	0	0	1.0
8	14.54718685	0.01191107463	1.774880243e-010	0	0	0	1.0
9	14.54718685	0.01191107463	1.774880243e-010	0	0	0	1.0
10	14.54718685	0.01191107463	1.774880243e-010	0	0	0	1.0
[EndOfFile]
